<mxfile host="app.diagrams.net" modified="2023-11-24T13:42:44.671Z" agent="Mozilla/5.0 (Windows NT 10.0; Win64; x64; rv:120.0) Gecko/20100101 Firefox/120.0" etag="kS-7zBiqqCK5EmvfoFsI" version="22.1.3" type="device">
  <diagram id="C5RBs43oDa-KdzZeNtuy" name="Page-1">
    <mxGraphModel dx="1430" dy="788" grid="1" gridSize="10" guides="1" tooltips="1" connect="1" arrows="1" fold="1" page="1" pageScale="1" pageWidth="827" pageHeight="1169" math="0" shadow="0">
      <root>
        <mxCell id="WIyWlLk6GJQsqaUBKTNV-0" />
        <mxCell id="WIyWlLk6GJQsqaUBKTNV-1" parent="WIyWlLk6GJQsqaUBKTNV-0" />
        <mxCell id="6N6PK-sf3pcbVXsgEC-G-3" value="" style="edgeStyle=orthogonalEdgeStyle;rounded=0;orthogonalLoop=1;jettySize=auto;html=1;entryX=0.5;entryY=0;entryDx=0;entryDy=0;" edge="1" parent="WIyWlLk6GJQsqaUBKTNV-1" source="6N6PK-sf3pcbVXsgEC-G-4" target="6N6PK-sf3pcbVXsgEC-G-55">
          <mxGeometry relative="1" as="geometry">
            <mxPoint x="148.75000000000023" y="130" as="targetPoint" />
          </mxGeometry>
        </mxCell>
        <mxCell id="6N6PK-sf3pcbVXsgEC-G-4" value="Employee.java&lt;br&gt;Constructor" style="strokeWidth=2;html=1;shape=mxgraph.flowchart.start_1;whiteSpace=wrap;" vertex="1" parent="WIyWlLk6GJQsqaUBKTNV-1">
          <mxGeometry x="98.75" y="30" width="100" height="60" as="geometry" />
        </mxCell>
        <mxCell id="6N6PK-sf3pcbVXsgEC-G-59" value="" style="edgeStyle=orthogonalEdgeStyle;rounded=0;orthogonalLoop=1;jettySize=auto;html=1;entryX=0.5;entryY=0;entryDx=0;entryDy=0;" edge="1" parent="WIyWlLk6GJQsqaUBKTNV-1" source="6N6PK-sf3pcbVXsgEC-G-55" target="6N6PK-sf3pcbVXsgEC-G-60">
          <mxGeometry relative="1" as="geometry">
            <mxPoint x="148.6875" y="220" as="targetPoint" />
          </mxGeometry>
        </mxCell>
        <mxCell id="6N6PK-sf3pcbVXsgEC-G-55" value="Set instance employeeName" style="whiteSpace=wrap;html=1;strokeWidth=2;" vertex="1" parent="WIyWlLk6GJQsqaUBKTNV-1">
          <mxGeometry x="88.75" y="122.5" width="120" height="60" as="geometry" />
        </mxCell>
        <mxCell id="6N6PK-sf3pcbVXsgEC-G-62" value="" style="edgeStyle=orthogonalEdgeStyle;rounded=0;orthogonalLoop=1;jettySize=auto;html=1;" edge="1" parent="WIyWlLk6GJQsqaUBKTNV-1" source="6N6PK-sf3pcbVXsgEC-G-60" target="6N6PK-sf3pcbVXsgEC-G-61">
          <mxGeometry relative="1" as="geometry" />
        </mxCell>
        <mxCell id="6N6PK-sf3pcbVXsgEC-G-60" value="Set instance employeeNumber" style="whiteSpace=wrap;html=1;strokeWidth=2;" vertex="1" parent="WIyWlLk6GJQsqaUBKTNV-1">
          <mxGeometry x="88.75" y="210" width="120" height="60" as="geometry" />
        </mxCell>
        <mxCell id="6N6PK-sf3pcbVXsgEC-G-61" value="End" style="strokeWidth=2;html=1;shape=mxgraph.flowchart.terminator;whiteSpace=wrap;" vertex="1" parent="WIyWlLk6GJQsqaUBKTNV-1">
          <mxGeometry x="98.75" y="300" width="100" height="60" as="geometry" />
        </mxCell>
        <mxCell id="6N6PK-sf3pcbVXsgEC-G-65" value="" style="edgeStyle=orthogonalEdgeStyle;rounded=0;orthogonalLoop=1;jettySize=auto;html=1;" edge="1" parent="WIyWlLk6GJQsqaUBKTNV-1" source="6N6PK-sf3pcbVXsgEC-G-63" target="6N6PK-sf3pcbVXsgEC-G-64">
          <mxGeometry relative="1" as="geometry" />
        </mxCell>
        <mxCell id="6N6PK-sf3pcbVXsgEC-G-63" value="Employee.java&lt;br&gt;Set employeeSalary" style="strokeWidth=2;html=1;shape=mxgraph.flowchart.start_1;whiteSpace=wrap;" vertex="1" parent="WIyWlLk6GJQsqaUBKTNV-1">
          <mxGeometry x="390" y="30" width="130" height="60" as="geometry" />
        </mxCell>
        <mxCell id="6N6PK-sf3pcbVXsgEC-G-68" value="" style="edgeStyle=orthogonalEdgeStyle;rounded=0;orthogonalLoop=1;jettySize=auto;html=1;" edge="1" parent="WIyWlLk6GJQsqaUBKTNV-1" source="6N6PK-sf3pcbVXsgEC-G-64" target="6N6PK-sf3pcbVXsgEC-G-67">
          <mxGeometry relative="1" as="geometry" />
        </mxCell>
        <mxCell id="6N6PK-sf3pcbVXsgEC-G-64" value="Set instance Salary" style="whiteSpace=wrap;html=1;strokeWidth=2;" vertex="1" parent="WIyWlLk6GJQsqaUBKTNV-1">
          <mxGeometry x="395" y="122.5" width="120" height="60" as="geometry" />
        </mxCell>
        <mxCell id="6N6PK-sf3pcbVXsgEC-G-67" value="End" style="strokeWidth=2;html=1;shape=mxgraph.flowchart.terminator;whiteSpace=wrap;" vertex="1" parent="WIyWlLk6GJQsqaUBKTNV-1">
          <mxGeometry x="405" y="210" width="100" height="60" as="geometry" />
        </mxCell>
        <mxCell id="6N6PK-sf3pcbVXsgEC-G-69" value="Has argument salary" style="strokeWidth=2;html=1;shape=mxgraph.flowchart.annotation_2;align=left;labelPosition=right;pointerEvents=1;" vertex="1" parent="WIyWlLk6GJQsqaUBKTNV-1">
          <mxGeometry x="530" y="30" width="50" height="60" as="geometry" />
        </mxCell>
        <mxCell id="6N6PK-sf3pcbVXsgEC-G-70" value="&lt;div&gt;Has arguments:&lt;/div&gt;&lt;div&gt;employeeName&lt;br&gt;employeeNumber&lt;br&gt; &lt;/div&gt;" style="strokeWidth=2;html=1;shape=mxgraph.flowchart.annotation_2;align=left;labelPosition=right;pointerEvents=1;" vertex="1" parent="WIyWlLk6GJQsqaUBKTNV-1">
          <mxGeometry x="208.75" y="30" width="50" height="60" as="geometry" />
        </mxCell>
      </root>
    </mxGraphModel>
  </diagram>
</mxfile>
